name D:\school\WTK\thesis\model\3dpredictsim\Results\MidTarsalJoint\Fal_s1_bCst_PF_Natali2010_ls150_MT_nl_signed_lin_MTP_T5_ig24_500_30.mot
datacolumns 128
datarows 4
range 0.00000000 0.03420617
endheader
time	pelvis_tilt	pelvis_list	pelvis_rotation	pelvis_tx	pelvis_ty	pelvis_tz	hip_flexion_l	hip_adduction_l	hip_rotation_l	hip_flexion_r	hip_adduction_r	hip_rotation_r	knee_angle_l	knee_angle_r	ankle_angle_l	ankle_angle_r	subtalar_angle_l	subtalar_angle_r	tmt_angle_l	tmt_angle_r	mtp_angle_l	mtp_angle_r	lumbar_extension	lumbar_bending	lumbar_rotation	arm_flex_l	arm_add_l	arm_rot_l	arm_flex_r	arm_add_r	arm_rot_r	elbow_flex_l	elbow_flex_r	pro_sup_l	pro_sup_r	glut_med1_l/activation	glut_med2_l/activation	glut_med3_l/activation	glut_min1_l/activation	glut_min2_l/activation	glut_min3_l/activation	semimem_l/activation	semiten_l/activation	bifemlh_l/activation	bifemsh_l/activation	sar_l/activation	add_long_l/activation	add_brev_l/activation	add_mag1_l/activation	add_mag2_l/activation	add_mag3_l/activation	tfl_l/activation	pect_l/activation	grac_l/activation	glut_max1_l/activation	glut_max2_l/activation	glut_max3_l/activation	iliacus_l/activation	psoas_l/activation	quad_fem_l/activation	gem_l/activation	peri_l/activation	rect_fem_l/activation	vas_med_l/activation	vas_int_l/activation	vas_lat_l/activation	med_gas_l/activation	lat_gas_l/activation	soleus_l/activation	tib_post_l/activation	flex_dig_l/activation	flex_hal_l/activation	tib_ant_l/activation	per_brev_l/activation	per_long_l/activation	per_tert_l/activation	ext_dig_l/activation	ext_hal_l/activation	ercspn_l/activation	intobl_l/activation	extobl_l/activation	glut_med1_r/activation	glut_med2_r/activation	glut_med3_r/activation	glut_min1_r/activation	glut_min2_r/activation	glut_min3_r/activation	semimem_r/activation	semiten_r/activation	bifemlh_r/activation	bifemsh_r/activation	sar_r/activation	add_long_r/activation	add_brev_r/activation	add_mag1_r/activation	add_mag2_r/activation	add_mag3_r/activation	tfl_r/activation	pect_r/activation	grac_r/activation	glut_max1_r/activation	glut_max2_r/activation	glut_max3_r/activation	iliacus_r/activation	psoas_r/activation	quad_fem_r/activation	gem_r/activation	peri_r/activation	rect_fem_r/activation	vas_med_r/activation	vas_int_r/activation	vas_lat_r/activation	med_gas_r/activation	lat_gas_r/activation	soleus_r/activation	tib_post_r/activation	flex_dig_r/activation	flex_hal_r/activation	tib_ant_r/activation	per_brev_r/activation	per_long_r/activation	per_tert_r/activation	ext_dig_r/activation	ext_hal_r/activation	ercspn_r/activation	intobl_r/activation	extobl_r/activation	
          0.00000000	         -2.93017620	         -2.01774714	          5.42203561	          0.00000000	          0.91940235	         -0.00262415	        -16.74473089	         -0.77924830	          6.65352541	         29.13330382	          3.34915807	         -2.63417626	         -8.50659274	        -10.64188830	         -1.73133678	          5.80889562	          8.74579027	         -3.99011078	          2.59811844	         -0.78956775	         17.24808831	          2.28766482	         -2.23563519	          0.40945459	         -2.02421270	          4.59681073	        -13.45930126	         15.94368611	         -5.28458985	        -13.45209403	          5.81740974	         36.22708790	         17.13772156	         86.51662706	         86.51662706	          0.26679096	          0.10027778	          0.06971957	          0.29198693	          0.18520967	          0.10035171	          0.05000435	          0.05000080	          0.05000052	          0.05490630	          0.10301675	          0.10358332	          0.11396749	          0.05000477	          0.05000643	          0.05000210	          0.30682914	          0.10377289	          0.05000982	          0.05000315	          0.05000198	          0.05000200	          0.39862426	          0.60197763	          0.05000040	          0.05000133	          0.05061306	          0.23779142	          0.05000159	          0.05000155	          0.05000149	          0.26327692	          0.35754164	          0.31957636	          0.26701706	          0.25584495	          0.33684034	          0.05000011	          0.05950152	          0.11154811	          0.05000062	          0.05000016	          0.05000061	          0.05000012	          0.05000056	          0.06723974	          0.05950170	          0.05950170	          0.05000033	          0.05950190	          0.05950184	          0.05946150	          0.15689169	          0.08420849	          0.18965146	          0.05000319	          0.05000064	          0.18488403	          0.33336480	          0.14593183	          0.24911721	          0.11030788	          0.05000063	          0.05118195	          0.14784579	          0.05000120	          0.05000079	          0.12854813	          0.05950433	          0.05976244	          0.37160888	          0.30833106	          0.12949452	          0.05000118	          0.12092305	          0.11689670	          0.10769949	          0.07076091	          0.07480827	          0.06200293	          0.05000036	          0.05952712	          0.05000231	          0.52176789	          0.24209231	          0.16226816	          0.24216755	          0.47925078	          0.24755492	          0.05872243	          0.11091185	          0.09131989	
          0.01140206	         -2.92638215	         -2.11041118	          5.66752757	          0.01733923	          0.91859698	         -0.00240534	        -16.51907504	         -1.07643723	          6.44512678	         28.46146834	          3.76198667	         -2.39179501	        -10.59754035	        -11.05407084	         -2.44328028	          5.21666475	          9.76620494	         -4.36976292	          1.93189205	         -0.92201161	         18.84695040	          2.20597324	         -2.03022611	          0.62388228	         -2.09486394	          4.26608057	        -13.47254444	         16.26692235	         -6.18715695	        -13.45083262	          5.53783719	         37.41095029	         16.79163175	         86.51662706	         86.51662706	          0.22418777	          0.08426472	          0.05858658	          0.24536038	          0.15563405	          0.08432685	          0.05000508	          0.05000186	          0.05000328	          0.05000022	          0.08656647	          0.19462444	          0.09577773	          0.09371012	          0.05950387	          0.05950347	          0.25783248	          0.08720401	          0.05000453	          0.05027603	          0.05937673	          0.05950154	          0.33496882	          0.54728548	          0.05950188	          0.05949999	          0.05000063	          0.19981911	          0.10045291	          0.12897875	          0.14003452	          0.22123474	          0.30044655	          0.26854385	          0.22437780	          0.21499012	          0.28305148	          0.05000004	          0.05000031	          0.13410637	          0.05000019	          0.05000007	          0.05000029	          0.07223837	          0.07080562	          0.05950308	          0.05000003	          0.05000010	          0.10560622	          0.05000020	          0.05000018	          0.05000015	          0.13183814	          0.07076161	          0.15936646	          0.05000244	          0.05952761	          0.15536049	          0.32910599	          0.34204963	          0.23206877	          0.11448994	          0.05000071	          0.08442870	          0.16091969	          0.05000494	          0.10275846	          0.13538478	          0.05000241	          0.05022073	          0.58846568	          0.25909437	          0.10881601	          0.05950231	          0.12918961	          0.14041967	          0.10799290	          0.06900715	          0.07080871	          0.05974550	          0.05950177	          0.05002184	          0.05950030	          0.50352474	          0.27404313	          0.21111037	          0.20349729	          0.45204059	          0.20802355	          0.05000002	          0.09320057	          0.07673721	
          0.02280412	         -2.91706211	         -2.20862347	          5.88048369	          0.03497808	          0.91777190	         -0.00221002	        -16.22493684	         -1.37183963	          6.22510336	         27.64110055	          4.05028973	         -2.12037467	        -12.79352049	        -11.51563056	         -3.34021679	          4.73396676	         10.72308445	         -4.75650086	          1.20120343	         -1.14940292	         20.41105487	          2.23539097	         -1.80264430	          0.84959039	         -2.15413868	          3.85387258	        -13.48275017	         16.50641646	         -7.10678264	        -13.46028529	          5.33418740	         38.58283845	         16.47246168	         86.51662706	         86.51662706	          0.34628161	          0.07080882	          0.05000034	          0.32913062	          0.13078147	          0.07086103	          0.05000532	          0.05000050	          0.05000035	          0.05000213	          0.07274338	          0.16354541	          0.08048378	          0.07874602	          0.05000297	          0.05000188	          0.25284552	          0.07328398	          0.05000568	          0.05000230	          0.05000129	          0.05000113	          0.28147841	          0.49821656	          0.05000051	          0.05000170	          0.05000481	          0.16791052	          0.08441193	          0.10838255	          0.11767283	          0.18590620	          0.25246884	          0.22566060	          0.18854740	          0.18065900	          0.23785172	          0.06031262	          0.10935532	          0.14336064	          0.05000100	          0.09533366	          0.05000084	          0.06957729	          0.05949882	          0.05000119	          0.25331924	          0.26880817	          0.28773731	          0.46025581	          0.28607311	          0.20304731	          0.11341181	          0.05946436	          0.13391782	          0.05838959	          0.05002264	          0.13055134	          0.27655177	          0.28742861	          0.19501072	          0.11845410	          0.05000115	          0.07094724	          0.13522314	          0.13993246	          0.12090079	          0.11376576	          0.05001814	          0.05000114	          0.49449482	          0.21772036	          0.23300359	          0.05000064	          0.10856001	          0.11799677	          0.09074809	          0.05798763	          0.05950154	          0.05430525	          0.05000033	          0.05000084	          0.05000122	          0.57818689	          0.36483592	          0.17739959	          0.37416584	          0.52523810	          0.20146108	          0.06743677	          0.10993311	          0.06448322	
          0.03420617	         -2.90415155	         -2.29552137	          6.05658339	          0.05269019	          0.91694480	         -0.00198205	        -15.83061945	         -1.64842786	          6.02636773	         26.76156039	          4.30075959	         -1.85548207	        -15.13734178	        -11.89055870	         -4.32699765	          4.21114834	         11.62916300	         -5.14504833	          0.39623447	         -1.07078787	         21.73676396	          2.28549127	         -1.57698845	          1.06608912	         -2.20274017	          3.40173486	        -13.50153836	         16.68976205	         -7.99392231	        -13.47021832	          5.21082617	         39.71899562	         16.15140345	         86.51662706	         86.51662706	          0.29098495	          0.05950168	          0.05000117	          0.27657283	          0.10989740	          0.05954548	          0.05000330	          0.05000040	          0.05000051	          0.05000016	          0.06112738	          0.17687713	          0.17411924	          0.08856110	          0.06578136	          0.14205344	          0.21246955	          0.06158280	          0.05000132	          0.05009906	          0.05016843	          0.05949898	          0.23652972	          0.41865950	          0.05000376	          0.05000579	          0.05000045	          0.14109726	          0.11073475	          0.10614518	          0.10027919	          0.15621920	          0.21215260	          0.18962530	          0.15843868	          0.15181011	          0.19986978	          0.17318718	          0.12472172	          0.12046844	          0.30472412	          0.19812813	          0.08663720	          0.08530252	          0.05000007	          0.05000009	          0.36288031	          0.36534977	          0.39078256	          0.38675874	          0.24039148	          0.26307430	          0.09530303	          0.08634198	          0.11253305	          0.05000160	          0.05000114	          0.10970392	          0.23238987	          0.24153022	          0.16402551	          0.15040376	          0.05000082	          0.05961875	          0.11363034	          0.23543280	          0.18298887	          0.15132845	          0.05000017	          0.05000021	          0.41553001	          0.18295321	          0.19579787	          0.05000020	          0.15507792	          0.16565114	          0.12722167	          0.05000007	          0.05000016	          0.05000002	          0.05000004	          0.05000025	          0.05000026	          0.64327429	          0.31229698	          0.15980298	          0.62963819	          0.57263909	          0.33198285	          0.08695314	          0.09237812	          0.05418606	
